<svg xmlns="http://www.w3.org/2000/svg" viewBox="0 0 496 496" style="enable-background:new 0 0 496 496;" xml:space="preserve">
	<defs>
  		<style>
    		g { display: none; }
    		g:target { display: inline; }
  		</style>
	</defs>
	<g id="plus-active" fill="#adae51">
		<path d="M488,240H256V8c0-4.418-3.582-8-8-8s-8,3.582-8,8v232H8c-4.418,0-8,3.582-8,8s3.582,8,8,8h232v232c0,4.418,3.582,8,8,8
			s8-3.582,8-8V256h232c4.418,0,8-3.582,8-8S492.418,240,488,240z"/>
	</g>
	<g id="plus" fill="#99a18c">
		<path d="M488,240H256V8c0-4.418-3.582-8-8-8s-8,3.582-8,8v232H8c-4.418,0-8,3.582-8,8s3.582,8,8,8h232v232c0,4.418,3.582,8,8,8
			s8-3.582,8-8V256h232c4.418,0,8-3.582,8-8S492.418,240,488,240z"/>
	</g>
</svg>
